# Blender v3.0.0 OBJ File: ''
# www.blender.org
o Mball.018_Mesh.002
v 0.813934 2.292703 -2.619249
v 1.429126 2.270428 -2.284644
v 0.819659 2.675036 -2.263047
v 0.796749 2.835187 -1.834180
v -0.063045 2.155423 -2.542365
v 0.195363 2.640927 -2.116729
v -0.005527 2.720977 -1.365665
v -0.446435 2.305363 -2.202208
v -1.324352 2.677407 -1.370206
v -0.630863 2.507414 -1.313634
v -0.817025 3.539203 -0.705838
v -1.433399 3.472145 -0.647346
v -1.178718 3.796360 -0.067000
v -0.617085 3.732325 -0.048604
v -0.099404 3.033912 -0.842225
v 0.319513 2.909580 -0.939832
v 0.086397 3.271265 -0.069989
v -0.492472 3.513064 0.912261
v 0.198341 3.595270 1.635700
v -0.333972 3.738171 2.132264
v -0.637030 3.432916 2.633262
v -0.044038 3.425560 2.633610
v -0.387768 2.931605 3.036063
v -0.338272 1.611082 2.905125
v 0.141837 0.694982 3.066738
v -0.300836 0.689444 2.351057
v -0.313516 0.336477 1.726267
v -0.567996 0.902888 2.110215
v -1.151622 0.206488 1.728739
v -1.547781 0.499055 1.814362
v -0.964947 1.319947 2.135462
v -1.439461 2.055619 2.058335
v -1.094217 2.126812 2.719167
v -1.448882 2.797842 2.353135
v -1.055700 3.162481 2.662187
v -1.052086 3.505084 2.085658
v -1.515221 2.970994 1.212265
v -1.069956 3.448953 1.150278
v -1.619093 2.415483 1.241697
v -1.610629 1.731915 1.682181
v -1.811592 3.402819 0.377412
v -1.448132 3.669292 0.280282
v -1.783569 3.389853 -0.362985
v -2.276980 2.676674 -0.511981
v -2.181102 2.634086 -1.169359
v -1.853618 2.784899 -1.125370
v -2.722913 2.240279 -1.233137
v -2.135719 2.278276 -1.933281
v -2.473810 1.894825 -1.997357
v -2.447915 1.419968 -2.226533
v -2.344105 1.034337 -2.320794
v -1.935910 0.563228 -2.618834
v -2.462750 0.519434 -1.610454
v -2.182279 0.129969 -1.456338
v -2.416691 -0.752530 -0.833048
v -2.583990 -0.910799 -0.380373
v -2.037959 -1.020370 -0.025953
v -2.879493 -0.747969 0.242794
v -2.484329 -0.734427 0.646511
v -3.030667 -0.235161 0.627095
v -3.090169 0.371036 0.642413
v -2.444016 0.492331 1.156502
v -2.403964 1.089012 0.954464
v -2.947220 1.209902 -0.111950
v -3.338006 0.367086 0.080372
v -3.312777 -0.208732 0.008339
v -3.021293 -0.620877 -0.416508
v -3.145078 -0.118703 -0.732456
v -2.931000 0.497087 -1.076361
v -3.034573 0.996694 -0.952304
v -2.980088 1.609148 -0.787263
v -2.562510 2.179087 -0.362054
v -2.903581 1.674206 -1.458914
v -2.112582 2.803870 0.290331
v -2.161820 1.709254 0.469581
v -1.981690 1.254423 1.491856
v -1.523492 1.351048 1.877037
v -2.404117 -0.268931 0.990776
v -0.829978 -0.384091 1.075521
v -1.645804 -0.475172 0.878601
v 0.234125 -0.704105 0.957712
v -0.024531 -1.032527 0.541207
v 0.386960 -1.160909 0.152982
v 1.265291 -0.908349 -0.432661
v 0.284361 -1.241293 -0.750473
v 2.121986 -0.738336 -1.379640
v 0.722895 -0.867307 -1.893319
v 2.187233 -0.764185 -0.849650
v 1.391090 -0.417243 -2.141273
v 1.538072 0.470766 -2.347869
v 1.996163 1.618238 -1.898250
v 1.950266 2.228682 -1.710415
v 1.691306 2.576174 -1.469189
v 2.402913 0.197699 -1.932820
v 2.638510 -0.150857 -1.481192
v 2.641445 -0.326418 -0.863751
v 2.970740 0.821425 -0.973710
v 2.802807 0.386397 -0.153160
v 3.357285 0.561469 0.905618
v 3.310768 1.284456 0.051703
v 3.308188 1.640577 -0.794642
v 3.064428 0.148479 0.870181
v 3.151599 0.343277 1.432651
v 3.461089 1.065886 1.129048
v 3.188676 1.595281 1.438934
v 3.224764 1.934729 0.241164
v 2.987880 1.523039 1.763075
v 2.572732 2.378915 1.345306
v 2.611727 2.669800 0.338195
v 2.653058 2.823396 -0.503865
v 2.262457 2.985213 0.168394
v 2.541485 2.791442 -0.944290
v 1.191733 2.791605 -0.775675
v 1.851015 3.050103 -0.108018
v 1.167786 3.668952 0.716433
v 1.606152 3.569633 0.573926
v 0.748266 3.506929 1.676193
v 1.433480 3.546013 1.614090
v 0.847518 3.096657 2.199242
v 1.545389 2.304529 2.380846
v 0.560617 2.291202 2.927023
v 1.262931 1.824769 3.078058
v 2.113708 1.540656 2.282248
v 1.514956 1.414802 3.109762
v 2.107853 1.007766 2.371036
v 1.458485 0.775317 3.110175
v 2.029843 0.642762 2.312762
v 1.724900 0.267207 2.145103
v 1.148745 0.183518 2.712483
v 0.400975 0.166405 2.696789
v 0.851999 0.496567 3.187704
v 0.464696 1.077122 3.344785
v 0.079117 2.046435 3.054063
v 0.224026 2.718496 2.904978
v 0.996759 1.218713 3.384531
v 0.461014 -0.000363 1.817149
v 2.550528 0.200753 1.772950
v 1.337767 -0.049626 1.717152
v 2.650300 -0.085288 1.225275
v 2.421569 -0.028784 0.268469
v 1.788921 -0.277667 0.261450
v 2.272779 -0.230297 -0.164500
v 1.168374 -0.347236 1.040551
v 0.638586 -0.226873 1.410473
v 3.072885 0.788740 1.858925
v 1.923263 3.160296 1.834701
v 2.277639 2.294904 1.810270
v 1.959548 3.511629 1.139541
v 2.238563 3.177715 1.323340
v 0.213512 3.371181 0.963789
v 0.575073 3.160619 0.079371
v 3.148546 2.452479 -0.474293
v 3.057611 2.264710 -1.058966
v 2.861486 2.054335 -1.397770
v 2.775854 1.144287 -1.473843
v 2.267777 -0.266785 -1.858787
v 1.388901 0.129058 -2.482319
v 1.087431 -0.516889 -2.329467
v 1.031389 -0.379988 -3.024122
v 1.056676 0.165248 -3.278007
v 1.078459 0.807608 -2.972440
v 0.677232 -0.070290 -3.606446
v -0.379686 -1.134817 -0.771872
v 0.007538 -0.989448 -1.679067
v 0.001963 -0.915757 -2.944263
v -0.084698 -0.424500 -3.598733
v -0.048483 0.367807 -3.772662
v 0.231518 0.769355 -3.624192
v -0.446916 1.033878 -3.424248
v 0.454835 1.542915 -2.935943
v 1.134341 1.629888 -2.700882
v 0.665092 0.665386 -3.516272
v -0.935302 1.761424 -3.002288
v -1.495316 1.760761 -2.959114
v -1.706652 1.241703 -3.043460
v -1.421308 0.446613 -3.027857
v -0.918795 0.404501 -3.371149
v -0.668864 -0.294200 -3.309318
v -1.619153 0.157102 -2.485552
v -1.255118 2.159550 -2.578446
v 0.515995 -0.729193 -3.235290
v -0.410543 -1.128224 0.035515
v -1.136191 -0.753301 -0.012551
v -1.728368 -0.655247 -0.779001
v -1.350867 -0.585429 -0.588665
v -0.845461 -0.595267 -1.319817
v -1.399666 -0.196216 -1.207094
v -1.616644 0.013517 -1.936617
v -0.591824 -0.668915 -2.888971
v -0.804614 2.509178 3.004103
vn 0.1291 0.8191 -0.5589
vn 0.0879 0.9710 -0.2222
vn 0.3030 0.8593 -0.4120
vn -0.0812 0.6977 -0.7118
vn -0.2754 0.8558 -0.4378
vn 0.1486 0.5257 -0.8376
vn -0.1627 0.9174 -0.3631
vn -0.0086 0.8328 -0.5535
vn -0.2592 0.9069 -0.3321
vn 0.0437 0.8203 -0.5702
vn -0.0908 0.8251 -0.5576
vn 0.1600 0.7896 -0.5923
vn -0.3809 0.7320 -0.5648
vn 0.3193 0.9445 -0.0765
vn -0.1739 0.9818 -0.0760
vn 0.3791 0.8985 -0.2214
vn 0.2063 0.8235 -0.5285
vn 0.0942 0.9520 -0.2912
vn 0.0239 0.9785 -0.2046
vn 0.1037 0.9945 -0.0135
vn 0.3037 0.7262 0.6168
vn 0.0186 0.9829 0.1829
vn -0.2207 0.7509 0.6224
vn -0.0152 0.3401 0.9402
vn -0.4139 -0.0035 0.9103
vn -0.0677 0.1250 0.9898
vn -0.5097 -0.2710 0.8166
vn -0.7194 -0.5592 0.4119
vn -0.5575 -0.4480 0.6989
vn -0.4758 -0.4829 0.7351
vn -0.2455 -0.7378 0.6287
vn -0.0915 -0.6132 0.7845
vn -0.3825 -0.3174 0.8677
vn -0.4996 -0.3595 0.7881
vn -0.8245 0.1673 0.5405
vn -0.5083 0.1460 0.8487
vn -0.6688 -0.2867 0.6859
vn -0.9260 -0.0596 0.3727
vn -0.8949 0.1915 0.4030
vn -0.5880 0.4822 0.6493
vn -0.5627 0.8110 0.1599
vn -0.8469 0.4309 0.3113
vn -0.8857 0.3376 0.3185
vn -0.7219 0.6445 0.2516
vn -0.4001 0.9037 0.1523
vn -0.3931 0.9016 0.1801
vn -0.3069 0.8425 -0.4428
vn -0.4552 0.8491 -0.2679
vn -0.7822 0.6214 -0.0441
vn -0.6624 0.7041 -0.2558
vn -0.4344 0.7404 -0.5129
vn -0.7806 0.5998 -0.1757
vn -0.6890 -0.4680 -0.5533
vn -0.7119 -0.5116 -0.4811
vn -0.8036 -0.2245 -0.5512
vn -0.3053 -0.9301 -0.2043
vn 0.0882 -0.9947 0.0521
vn -0.5727 -0.7753 0.2663
vn -0.3355 -0.4563 0.8242
vn -0.7208 -0.3233 0.6131
vn -0.2278 -0.7726 0.5926
vn -0.6368 0.0159 0.7709
vn -0.7983 0.1693 0.5779
vn -0.7498 0.4391 0.4950
vn -0.9541 -0.2891 0.0783
vn -0.7048 -0.6456 -0.2940
vn -0.9601 0.0320 -0.2778
vn -0.7267 -0.1383 -0.6728
vn -0.8043 -0.2635 -0.5326
vn -0.9552 0.2817 0.0905
vn -0.8476 0.4259 0.3164
vn -0.9221 0.1678 -0.3488
vn -0.6921 0.4326 -0.5778
vn -0.8018 0.3780 0.4628
vn -0.8545 0.4305 0.2907
vn -0.9765 0.1665 0.1369
vn 0.0101 -0.8162 0.5776
vn -0.1075 -0.7877 0.6066
vn 0.0582 -0.7576 0.6501
vn -0.0781 -0.8741 0.4795
vn 0.0586 -0.9955 -0.0738
vn 0.3553 -0.8856 0.2988
vn 0.1955 -0.9448 0.2628
vn 0.2614 -0.9324 -0.2495
vn 0.4523 -0.8325 -0.3197
vn 0.5062 0.5375 -0.6744
vn 0.5777 0.4859 -0.6558
vn 0.9614 -0.0464 -0.2711
vn 0.9768 -0.1464 -0.1562
vn 0.8467 -0.5261 -0.0793
vn 0.9184 -0.3879 -0.0779
vn 0.6598 -0.7433 -0.1099
vn 0.7329 -0.5576 0.3897
vn 0.9821 0.0361 0.1846
vn 0.8232 0.4167 0.3855
vn 0.7880 0.4989 0.3608
vn 0.6713 0.3182 0.6694
vn 0.9140 0.3861 0.1244
vn 0.7354 0.6618 0.1454
vn 0.1007 0.9652 -0.2412
vn 0.3259 0.8397 -0.4344
vn 0.4585 0.8873 -0.0493
vn 0.8278 0.5606 -0.0176
vn 0.1429 0.9154 -0.3763
vn 0.0691 0.9353 -0.3469
vn 0.1668 0.8910 0.4221
vn -0.0728 0.9700 -0.2317
vn 0.0786 0.9602 0.2678
vn 0.5250 0.5376 0.6597
vn 0.3503 0.6345 0.6890
vn 0.4956 0.4564 0.7389
vn 0.2650 0.4346 0.8607
vn 0.6256 0.2029 0.7533
vn 0.6184 0.2597 0.7417
vn 0.3734 0.4864 0.7899
vn 0.6421 -0.0663 0.7637
vn 0.5611 -0.3400 0.7547
vn 0.5262 -0.4626 0.7135
vn 0.2737 -0.8450 0.4594
vn 0.3717 -0.7800 0.5034
vn 0.1230 -0.9215 0.3684
vn 0.0441 -0.5798 0.8135
vn -0.3188 -0.8451 0.4292
vn -0.2312 -0.0628 0.9709
vn 0.3840 0.3485 0.8550
vn 0.1704 0.0611 0.9835
vn 0.3414 -0.7005 0.6266
vn 0.3577 -0.9094 0.2121
vn 0.5065 -0.8596 -0.0670
vn 0.5527 -0.7483 0.3666
vn 0.3787 -0.8973 0.2265
vn 0.2402 -0.8985 0.3674
vn -0.0062 -0.8242 0.5662
vn -0.2772 -0.9126 0.3005
vn 0.6830 -0.1676 0.7109
vn 0.6454 0.3746 0.6656
vn 0.5314 0.8373 -0.1281
vn 0.9405 -0.2621 -0.2164
vn 0.7578 0.4406 -0.4812
vn 0.5958 0.2894 -0.7491
vn 0.7305 -0.0250 -0.6824
vn 0.8236 -0.5574 0.1050
vn 0.5125 -0.4934 -0.7028
vn 0.6183 -0.0833 -0.7815
vn 0.8430 -0.4034 -0.3559
vn 0.5771 0.1462 -0.8035
vn 0.5191 0.2056 -0.8296
vn 0.6630 -0.0474 -0.7471
vn 0.8742 -0.2123 -0.4366
vn 0.4521 -0.5898 -0.6691
vn 0.6286 -0.7143 -0.3075
vn 0.7626 -0.5170 -0.3886
vn 0.4516 -0.2216 -0.8642
vn 0.8090 -0.0175 -0.5875
vn -0.5390 -0.8205 -0.1902
vn -0.1706 -0.9697 -0.1746
vn -0.3634 -0.9191 -0.1520
vn 0.1554 0.4291 -0.8898
vn -0.1110 0.0558 -0.9922
vn -0.1478 0.3949 -0.9067
vn 0.7419 0.2556 -0.6198
vn 0.1868 0.4955 -0.8482
vn 0.4951 0.3379 -0.8004
vn -0.5844 -0.3060 -0.7515
vn -0.4582 -0.0859 -0.8846
vn -0.5466 -0.4871 -0.6811
vn -0.3362 0.5204 -0.7849
vn -0.1759 -0.5185 -0.8368
vn -0.1535 -0.9837 0.0932
vn 0.0111 -0.9366 -0.3502
vn 0.2253 -0.8109 -0.5399
vn -0.3289 -0.8475 -0.4165
vn -0.4258 -0.6554 -0.6238
vn -0.1973 -0.7492 -0.6323
vn -0.5453 0.1026 -0.8319
vn -0.7924 0.0808 -0.6045
vn 0.3484 -0.7835 -0.5145
vn 0.1531 0.9669 -0.2040
vn -0.1210 -0.9479 -0.2945
vn -0.3030 -0.9331 0.1936
vn 0.0167 0.5956 -0.8031
vn -0.6432 -0.6755 -0.3604
vn 0.2440 0.9015 -0.3572
vn 0.7907 0.5528 0.2631
vn 0.5176 0.8519 0.0796
vn -0.9258 0.1590 0.3429
vn -0.7231 0.2149 0.6565
vn -0.5701 -0.7956 -0.2048
vn 0.5033 -0.8474 0.1690
vn -0.5167 -0.8031 -0.2966
s 1
f 3//1 4//2 93//3
f 5//4 6//5 1//6
f 4//2 3//1 6//5
f 8//7 10//8 7//9
f 7//9 6//5 8//7
f 9//10 10//8 180//11
f 11//12 9//10 12//13
f 14//14 11//12 13//15
f 11//12 14//14 17//16
f 7//9 15//17 16//18
f 150//19 17//16 18//20
f 22//21 20//22 21//23
f 23//24 190//25 133//26
f 133//26 190//25 24//27
f 24//27 26//28 25//29
f 26//28 24//27 28//30
f 26//28 28//30 27//31
f 27//31 28//30 29//32
f 28//30 30//33 29//32
f 28//30 31//34 30//33
f 40//35 77//36 31//34
f 40//35 33//37 32//38
f 33//37 34//39 32//38
f 35//40 36//41 34//39
f 36//41 37//42 34//39
f 74//43 37//42 41//44
f 41//44 38//45 42//46
f 46//47 45//48 44//49
f 43//50 46//47 44//49
f 45//48 48//51 47//52
f 52//53 53//54 51//55
f 56//56 57//57 58//58
f 78//59 60//60 59//61
f 62//62 61//63 60//60
f 78//59 62//62 60//60
f 63//64 61//63 62//62
f 66//65 67//66 58//58
f 70//67 69//68 68//69
f 47//52 71//70 72//71
f 47//52 73//72 71//70
f 73//72 47//52 49//73
f 40//35 75//74 63//64
f 71//70 64//75 72//71
f 66//65 58//58 60//60
f 68//69 66//65 65//76
f 64//75 70//67 65//76
f 65//76 61//63 64//75
f 75//74 64//75 63//64
f 80//77 30//33 78//59
f 59//61 80//77 78//59
f 79//78 29//32 80//77
f 27//31 79//78 81//79
f 81//79 79//78 82//80
f 85//81 84//82 83//83
f 87//84 86//85 85//81
f 92//86 2//87 93//3
f 101//88 100//89 98//90
f 98//90 99//91 102//92
f 103//93 99//91 104//94
f 105//95 108//96 107//97
f 106//98 109//99 108//96
f 93//3 113//100 112//101
f 112//101 110//102 152//103
f 114//104 112//101 113//100
f 114//104 113//100 151//105
f 118//106 115//107 117//108
f 146//109 118//106 119//110
f 146//109 119//110 120//111
f 121//112 120//111 119//110
f 124//113 123//114 122//115
f 125//116 126//117 127//118
f 127//118 129//119 128//120
f 138//121 128//120 129//119
f 131//122 25//29 130//123
f 131//122 132//124 25//29
f 133//26 121//112 134//125
f 124//113 122//115 135//126
f 133//26 24//27 132//124
f 137//127 127//118 128//120
f 139//128 137//127 138//121
f 140//129 102//92 139//128
f 84//82 142//130 141//131
f 143//132 139//128 138//121
f 81//79 143//132 144//133
f 144//133 138//121 136//134
f 83//83 141//131 143//132
f 83//83 84//82 141//131
f 145//135 127//118 137//127
f 122//115 123//114 120//111
f 146//109 120//111 147//136
f 15//17 151//105 113//100
f 110//102 112//101 111//137
f 108//96 147//136 107//97
f 106//98 108//96 105//95
f 105//95 104//94 106//98
f 97//138 101//88 98//90
f 152//103 106//98 101//88
f 153//139 101//88 154//140
f 101//88 97//138 155//141
f 142//130 96//142 98//90
f 156//143 94//144 95//145
f 91//146 154//140 155//141
f 154//140 92//86 93//3
f 2//87 91//146 171//147
f 91//146 90//148 171//147
f 157//149 89//150 158//151
f 159//152 157//149 158//151
f 162//153 160//154 159//152
f 160//154 157//149 159//152
f 186//155 164//156 163//157
f 168//158 167//159 169//160
f 171//147 161//161 170//162
f 161//161 172//163 170//162
f 176//164 177//165 178//166
f 167//159 177//165 169//160
f 180//11 174//167 48//51
f 162//153 166//168 167//159
f 144//133 136//134 27//31
f 57//57 183//169 80//77
f 185//170 183//169 57//57
f 184//171 185//170 57//57
f 187//172 186//155 185//170
f 185//170 186//155 183//169
f 68//69 54//173 55//174
f 174//167 175//175 50//176
f 33//37 40//35 31//34
f 24//27 33//37 31//34
f 24//27 31//34 28//30
f 23//24 133//26 134//125
f 134//125 22//21 23//24
f 134//125 119//110 22//21
f 23//24 21//23 35//40
f 22//21 119//110 20//22
f 21//23 20//22 36//41
f 35//40 21//23 36//41
f 46//47 43//50 9//10
f 12//13 9//10 43//50
f 15//17 9//10 11//12
f 141//131 142//130 140//129
f 1//6 171//147 170//162
f 5//4 8//7 6//5
f 162//153 159//152 181//177
f 171//147 90//148 161//161
f 152//103 109//99 106//98
f 117//108 150//19 19//178
f 95//145 86//85 156//143
f 101//88 155//141 154//140
f 155//141 97//138 95//145
f 91//146 155//141 90//148
f 89//150 87//84 158//151
f 170//162 5//4 1//6
f 165//179 87//84 164//156
f 83//83 82//80 182//180
f 166//168 162//153 181//177
f 181//177 158//151 87//84
f 173//181 169//160 174//167
f 176//164 179//182 52//53
f 48//51 174//167 49//73
f 15//17 7//9 10//8
f 47//52 48//51 49//73
f 54//173 69//68 53//54
f 111//137 114//104 116//183
f 111//137 149//184 109//99
f 148//185 116//183 115//107
f 115//107 151//105 150//19
f 117//108 19//178 20//22
f 119//110 117//108 20//22
f 149//184 111//137 148//185
f 121//112 119//110 134//125
f 15//17 17//16 151//105
f 13//15 12//13 43//50
f 112//101 153//139 154//140
f 82//80 79//78 182//180
f 129//119 126//117 131//122
f 136//134 138//121 130//123
f 133//26 122//115 121//112
f 11//12 17//16 15//17
f 70//67 51//55 53//54
f 37//42 39//186 34//39
f 82//80 83//83 81//79
f 39//186 40//35 32//38
f 186//155 163//157 183//169
f 23//24 35//40 190//25
f 67//66 55//174 56//56
f 76//187 77//36 40//35
f 187//172 185//170 184//171
f 188//188 54//173 53//54
f 68//69 55//174 67//66
f 70//67 64//75 71//70
f 63//64 64//75 61//63
f 58//58 59//61 60//60
f 3//1 2//87 1//6
f 6//5 3//1 1//6
f 41//44 42//46 13//15 43//50
f 113//100 4//2 16//18
f 5//4 180//11 8//7
f 11//12 12//13 13//15
f 18//20 17//16 14//14
f 19//178 150//19 18//20
f 20//22 19//178 18//20
f 22//21 21//23 23//24
f 36//41 38//45 37//42
f 37//42 74//43 39//186
f 44//49 74//43 41//44 43//50
f 38//45 13//15 42//46
f 70//67 73//72 50//176 51//55
f 55//174 57//57 56//56
f 58//58 57//57 59//61
f 66//65 68//69 67//66
f 47//52 72//71 44//49
f 73//72 49//73 50//176
f 30//33 77//36 76//187 62//62
f 53//54 69//68 70//67
f 75//74 74//43 72//71
f 75//74 72//71 64//75
f 39//186 74//43 75//74
f 73//72 70//67 71//70
f 125//116 123//114 124//113 126//117
f 30//33 62//62 78//59
f 27//31 29//32 79//78
f 85//81 88//189 84//82
f 86//85 88//189 85//81
f 7//9 16//18 4//2 6//5
f 2//87 92//86 91//146
f 94//144 155//141 95//145
f 96//142 97//138 98//90
f 100//89 99//91 98//90
f 102//92 99//91 103//93
f 109//99 152//103 110//102
f 111//137 109//99 110//102
f 114//104 111//137 112//101
f 114//104 151//105 115//107
f 116//183 114//104 115//107
f 118//106 117//108 119//110
f 120//111 121//112 122//115
f 133//26 132//124 135//126 122//115
f 129//119 127//118 126//117
f 123//114 125//116 145//135 107//97
f 132//124 24//27 25//29
f 135//126 132//124 131//122
f 126//117 135//126 131//122
f 138//121 129//119 130//123
f 137//127 128//120 138//121
f 103//93 137//127 139//128
f 102//92 103//93 139//128
f 139//128 141//131 140//129
f 145//135 125//116 127//118
f 146//109 147//136 108//96 149//184
f 146//109 148//185 118//106
f 148//185 115//107 118//106
f 145//135 104//94 105//95 107//97
f 117//108 115//107 150//19
f 100//89 106//98 104//94
f 164//156 186//155 189//190 165//179
f 103//93 104//94 145//135
f 101//88 106//98 100//89
f 95//145 97//138 96//142
f 90//148 155//141 94//144
f 157//149 90//148 89//150
f 164//156 85//81 163//157
f 177//165 176//164 175//175 169//160
f 189//190 166//168 165//179
f 166//168 181//177 165//179
f 169//160 170//162 168//158
f 170//162 169//160 173//181
f 174//167 169//160 175//175
f 166//168 178//166 177//165 167//159
f 178//166 189//190 179//182
f 176//164 178//166 179//182
f 179//182 189//190 188//188
f 180//11 173//181 174//167
f 170//162 172//163 168//158
f 172//163 160//154 162//153
f 83//83 182//180 163//157 85//81
f 159//152 158//151 181//177
f 165//179 181//177 87//84
f 184//171 55//174 54//173 187//172
f 143//132 81//79 83//83
f 81//79 144//133 27//31
f 76//187 63//64 62//62
f 57//57 80//77 59//61
f 67//66 56//56 58//58
f 188//188 187//172 54//173
f 188//188 189//190 186//155
f 53//54 52//53 179//182 188//188
f 68//69 69//68 54//173
f 36//41 20//22 18//20 38//45
f 49//73 174//167 50//176
f 51//55 50//176 175//175
f 51//55 175//175 52//53
f 34//39 39//186 32//38
f 190//25 34//39 33//37
f 31//34 77//36 30//33
f 24//27 190//25 33//37
f 38//45 18//20 14//14 13//15
f 180//11 5//4 170//162 173//181
f 151//105 17//16 150//19
f 10//8 8//7 180//11
f 9//10 180//11 46//47
f 171//147 1//6 2//87
f 2//87 3//1 93//3
f 142//130 98//90 140//129
f 162//153 167//159 168//158 172//163
f 172//163 161//161 160//154
f 160//154 161//161 157//149
f 96//142 88//189 86//85 95//145
f 166//168 189//190 178//166
f 153//139 112//101 152//103
f 101//88 153//139 152//103
f 100//89 104//94 99//91
f 112//101 154//140 93//3
f 92//86 154//140 91//146
f 66//65 60//60 61//63 65//76
f 156//143 86//85 89//150
f 84//82 88//189 142//130
f 164//156 87//84 85//81
f 183//169 182//180 79//78
f 90//148 157//149 161//161
f 87//84 89//150 86//85
f 175//175 176//164 52//53
f 46//47 48//51 45//48
f 188//188 186//155 187//172
f 44//49 45//48 47//52
f 180//11 48//51 46//47
f 89//150 90//148 94//144 156//143
f 111//137 116//183 148//185
f 149//184 108//96 109//99
f 149//184 148//185 146//109
f 102//92 140//129 98//90
f 137//127 103//93 145//135
f 15//17 113//100 16//18
f 113//100 93//3 4//2
f 123//114 107//97 147//136 120//111
f 88//189 96//142 142//130
f 80//77 29//32 30//33
f 130//123 26//28 27//31 136//134
f 144//133 143//132 138//121
f 141//131 139//128 143//132
f 130//123 129//119 131//122
f 79//78 80//77 183//169
f 26//28 130//123 25//29
f 9//10 15//17 10//8
f 37//42 38//45 41//44
f 40//35 63//64 76//187
f 126//117 124//113 135//126
f 35//40 34//39 190//25
f 163//157 182//180 183//169
f 72//71 74//43 44//49
f 39//186 75//74 40//35
f 55//174 184//171 57//57
f 65//76 70//67 68//69
